# AST/ASF file generated using VICON BodyLanguage
# -----------------------------------------------
:version 1.10
:name VICON
:units
  mass 1.0
  length 0.45
  angle deg
:documentation
   .ast/.asf automatically generated from VICON data using
   VICON BodyBuilder and BodyLanguage model FoxedUp or BRILLIANT.MOD
:root
   order TX TY TZ RX RY RZ
   axis XYZ
   position 0 0 0  
   orientation 0 0 0 
:bonedata
  begin
     id 1 
     name lhipjoint
     direction 0.61522 -0.761478 0.204097 
     length 2.55743 
     axis 0 0 0  XYZ
  end
  begin
     id 2 
     name lfemur
     direction 0.34202 -0.939693 0  
     length 7.61162  
     axis 0 0 20  XYZ
    dof rx ry rz
    limits (-160.0 20.0)
           (-70.0 70.0)
           (-60.0 70.0)
  end
  begin
     id 3 
     name ltibia
     direction 0.34202 -0.939693 0   
     length 8.12393   
     axis 0 0 20   XYZ
    dof rx
    limits (-10.0 170.0)
  end
  begin
     id 4 
     name lfoot
     direction 0.0841971 -0.23133 0.969225   
     length 2.3572   
     axis -90 7.62852e-016 20   XYZ
    dof rx rz
    limits (-45.0 90.0)
           (-70.0 20.0)
  end
  begin
     id 5 
     name ltoes
     direction 1.53562e-011 -4.22209e-011 1   
     length 1.17993   
     axis -90 7.62852e-016 20   XYZ
    dof rx
    limits (-90.0 20.0)
  end
  begin
     id 6 
     name rhipjoint
     direction -0.625247 -0.75382 0.202044   
     length 2.58341  
     axis 0 0 0  XYZ 
  end
  begin
     id 7 
     name rfemur
     direction -0.34202 -0.939693 0   
     length 7.42147   
     axis 0 0 -20   XYZ
    dof rx ry rz
    limits (-160.0 20.0)
           (-70.0 70.0)
           (-70.0 60.0)
  end
  begin
     id 8 
     name rtibia
     direction -0.34202 -0.939693 0   
     length 8.20893   
     axis 0 0 -20   XYZ
    dof rx
    limits (-10.0 170.0)
 end
 begin
     id 9 
     name rfoot
     direction -0.124331 -0.341598 0.931586   
     length 2.45604  
     axis -90 -7.62852e-016 -20   XYZ
    dof rx rz
    limits (-45.0 90.0)
           (-20.0 70.0)
  end
  begin
     id 10 
     name rtoes
     direction -1.5353e-011 -4.2199e-011 1   
     length 1.21323   
     axis -90 -7.62852e-016 -20   XYZ
    dof rx
    limits (-90.0 20.0)
  end
  begin
     id 11 
     name lowerback
     direction -0.0218484 0.994884 -0.0986303   
     length 2.00523   
     axis 0 0 0   XYZ
    dof rx ry rz
    limits (-20.0 45.0)
           (-30.0 30.0)
           (-30.0 30.0)
  end
  begin
     id 12 
     name upperback
     direction -0.0097305 0.999717 -0.0217111   
     length 2.01352   
     axis 0 0 0   XYZ
    dof rx ry rz
    limits (-20.0 45.0)
           (-30.0 30.0)
           (-30.0 30.0)
  end
  begin
     id 13 
     name thorax
     direction -0.000928262 0.999699 0.0245198   
     length 2.02938   
     axis 0 0 0   XYZ
    dof rx ry rz
    limits (-20.0 45.0)
           (-30.0 30.0)
           (-30.0 30.0)
  end
  begin
     id 14 
     name lowerneck
     direction -0.0307979 0.998024 0.0547665   
     length 1.77263   
     axis 0 0 0   XYZ
    dof rx ry rz
    limits (-20.0 45.0)
           (-30.0 30.0)
           (-30.0 30.0)
  end
  begin
     id 15 
     name upperneck
     direction 0.0531587 0.996611 -0.0627734   
     length 1.77971   
     axis 0 0 0   XYZ
    dof rx ry rz
    limits (-20.0 45.0)
           (-30.0 30.0)
           (-30.0 30.0)
  end
  begin
     id 16
     name head
     direction 0.0213833 0.999404 -0.0271147  
     length 1.78263  
     axis 0 0 0   XYZ
    dof rx ry rz
    limits (-20.0 45.0)
           (-30.0 30.0)
           (-30.0 30.0)
  end
  begin
     id 17 
     name lclavicle
     direction 0.940017 0.332249 -0.0773233  
     length 3.73315  
     axis 0 0 0   XYZ
    dof ry rz
    limits (-20.0 10.0)
           (0.0 20.0)
  end
  begin
     id 18 
     name lhumerus
     direction 1 -4.48944e-011 7.52288e-028   
     length 5.40188   
     axis 180 -30 -90   XYZ
    dof rx ry rz
    limits (-60.0 90.0)
           (-90.0 90.0)
           (-90.0 90.0)
  end
  begin
     id 19
     name lradius
     direction 1 -4.48988e-011 1.48381e-027   
     length 3.68559   
     axis 180 -30 -90   XYZ
    dof rx
    limits (-10.0 170.0)
  end
  begin
     id 20
     name lwrist
     direction 1 -4.48925e-011 2.56952e-028   
     length 1.84279   
     axis -5.12785e-016 90 90   XYZ
    dof ry
    limits (-180.0 0.0)
 end
  begin
     id 21 
     name lhand
     direction 1 -4.49009e-011 5.13905e-028   
     length 0.61753   
     axis -3.27915e-016 90 90   XYZ
    dof rx rz
    limits (-90.0 90.0)
           (-45.0 45.0)
  end
  begin
     id 22 
     name lfingers
     direction 1 -4.49012e-011 1.02781e-027   
     length 0.497868   
     axis -6.5583e-016 90 90   XYZ
    dof rx
    limits (0.0 90.0)
  end
  begin
     id 23
     name lthumb
     direction 0.707107 -6.34987e-011 0.707107   
     length 0.714842   
     axis -90 45 2.85299e-015   XYZ
    dof rx rz
    limits (-45.0 45.0)
           (-45.0 45.0)
  end
  begin
     id 24 
     name rclavicle
     direction -0.9009 0.425937 -0.0834057   
     length 3.27864  
     axis 0 0 0   XYZ 
    dof ry rz
    limits (-10.0 20.0)
           (-20.0 0.0)
  end
  begin
     id 25 
     name rhumerus
     direction -1 -4.48953e-011 -1.03572e-027  
     length 6.1067   
     axis 180 30 90   XYZ
    dof rx ry rz
    limits (-90.0 60.0)
           (-90.0 90.0)
           (-90.0 90.0)
  end
  begin
     id 26 
     name rradius
     direction -1 -4.48975e-011 1.20742e-027   
     length 3.63052   
     axis 180 30 90   XYZ
    dof rx
    limits (-10.0 170.0)
  end
  begin
     id 27 
     name rwrist
     direction -1 -4.49017e-011 2.56952e-028   
     length 1.81526   
     axis -5.12785e-016 -90 -90   XYZ
    dof ry
    limits (-180.0 0.0)
  end
  begin
     id 28
     name rhand
     direction -1 -4.48832e-011 5.13905e-028   
     length 0.583848   
     axis -3.27915e-016 -90 -90   XYZ
    dof rx rz
    limits (-90.0 90.0)
           (-45.0 45.0)
  end
  begin
     id 29
     name rfingers
     direction -1 -4.48729e-011 1.02781e-027   
     length 0.470713   
     axis -6.5583e-016 -90 -90   XYZ
    dof rx
    limits (0.0 90.0)
  end
  begin
     id 30
     name rthumb
     direction -0.707107 -6.34964e-011 0.707107   
     length 0.675852   
     axis -90 -45 -2.85299e-015   XYZ
    dof rx rz
    limits (-45.0 45.0)
           (-45.0 45.0)
  end
:hierarchy
  begin
    root lhipjoint rhipjoint lowerback
    lhipjoint lfemur
    lfemur ltibia
    ltibia lfoot
    lfoot ltoes
    rhipjoint rfemur
    rfemur rtibia
    rtibia rfoot
    rfoot rtoes
    lowerback upperback
    upperback thorax
    thorax lowerneck lclavicle rclavicle
    lowerneck upperneck
    upperneck head
    lclavicle lhumerus
    lhumerus lradius
    lradius lwrist
    lwrist lhand lthumb
    lhand lfingers
    rclavicle rhumerus
    rhumerus rradius
    rradius rwrist
    rwrist rhand rthumb
    rhand rfingers
  end

#!OML:ASF F:\VICON\USERDATA\INSTALL\rory3\rory3.ASF
:FULLY-SPECIFIED
:DEGREES
575
root -0.641701 18.0231 3.74041 -2.29976 45.5308 -1.69424
lowerback 4.18262 10.3333 3.28312
upperback -1.2566 13.898 -3.75395
thorax -1.89985 6.90616 -6.26542
lowerneck -9.63283 -8.97824 -11.8147
upperneck 6.82698 -11.6366 11.7437
head 5.0145 -5.43278 4.61054
rclavicle -5.02304e-014 6.36111e-015
rhumerus 19.772 29.7552 -23.8338
rradius 85.1683
rwrist 20.4025
rhand -41.9944 16.4005
rfingers 7.12502
rthumb -14.8898 -13.0444
lclavicle -5.02304e-014 6.36111e-015
lhumerus -11.1708 -8.25631 12.5055
lradius 86.1334
lwrist -0.161718
lhand -28.2808 14.9558
lfingers 7.12502
lthumb -1.6571 44.9291
rfemur 12.838 5.87494 20.3039
rtibia 17.6191
rfoot -35.2211 -35.8928
rtoes 1.81323
lfemur -24.8224 -26.7194 -1.97657
ltibia 29.2801
lfoot -7.61587 -11.833
ltoes -11.021
576
root -0.622527 18.0182 3.75307 -2.08535 46.1111 -1.37088
lowerback 4.19084 10.7712 3.28371
upperback -1.47153 14.4826 -4.12015
thorax -1.95938 7.19767 -6.65984
lowerneck -8.95885 -9.31175 -11.4262
upperneck 6.85144 -12.2118 11.7273
head 4.95348 -5.72665 4.50858
rclavicle -1.4156e-013 -6.36111e-015
rhumerus 19.7096 29.9222 -24.2523
rradius 85.2963
rwrist 20.273
rhand -41.9693 16.4971
rfingers 7.12502
rthumb -14.8656 -12.9496
lclavicle -1.4156e-013 -6.36111e-015
lhumerus -11.178 -8.24668 12.0615
lradius 86.0673
lwrist -0.306332
lhand -28.3646 14.6034
lfingers 7.12502
lthumb -1.73806 44.5761
rfemur 13.1849 5.65067 20.1418
rtibia 17.3299
rfoot -35.5391 -36.0734
rtoes 1.97394
lfemur -25.0863 -26.9245 -2.28712
ltibia 29.5588
lfoot -7.44031 -12.1867
ltoes -9.83415
577
root -0.60703 18.0122 3.77037 -2.23145 46.6706 -1.60011
lowerback 4.1439 11.1293 3.52294
upperback -1.69398 14.9735 -4.27609
thorax -1.99943 7.43726 -6.94876
lowerneck -8.41131 -9.60101 -11.37
upperneck 7.00643 -12.6872 11.7804
head 4.96555 -5.97161 4.48549
rclavicle -9.69448e-014 1.59028e-015
rhumerus 19.9539 30.1183 -24.5743
rradius 85.2698
rwrist 20.5158
rhand -42.2906 16.3955
rfingers 7.12502
rthumb -15.1751 -13.028
lclavicle -9.69448e-014 1.59028e-015
lhumerus -11.4555 -8.10814 11.7082
lradius 85.9319
lwrist -0.321433
lhand -28.1779 14.1664
lfingers 7.12502
lthumb -1.55769 44.1405
rfemur 13.4497 5.47268 20.4447
rtibia 17.0798
rfoot -35.9268 -36.2771
rtoes 2.44274
lfemur -25.4058 -26.9803 -2.1309
ltibia 29.8467
lfoot -7.0723 -12.6411
ltoes -7.81555
578
root -0.594538 18.0013 3.78504 -2.42539 47.2441 -1.87212
lowerback 4.12836 11.327 4.07933
upperback -1.80006 15.2714 -4.54337
thorax -1.8461 7.58833 -7.49105
lowerneck -8.19548 -9.78787 -11.3046
upperneck 7.15804 -12.9994 11.9157
head 5.01819 -6.12025 4.49063
rclavicle -7.04567e-014 2.8625e-014
rhumerus 20.5788 30.1861 -25.1032
rradius 85.1507
rwrist 21.0203
rhand -42.4813 16.1385
rfingers 7.12502
rthumb -15.3588 -13.271
lclavicle -7.04567e-014 2.8625e-014
lhumerus -11.9796 -7.58397 11.1929
lradius 85.8194
lwrist -0.381941
lhand -28.0297 13.6182
lfingers 7.12502
lthumb -1.4146 43.5933
rfemur 13.6986 5.3822 20.8302
rtibia 16.9045
rfoot -36.4263 -36.5459
rtoes 2.83957
lfemur -25.7496 -27.1729 -1.91657
ltibia 30.1067
lfoot -7.03327 -13.0325
ltoes -7.56477
579
root -0.578721 17.9898 3.79618 -2.36674 47.909 -1.67785
lowerback 3.9385 11.5895 3.77368
upperback -1.7134 15.6016 -4.40376
thorax -1.71961 7.76292 -7.14172
lowerneck -8.02479 -9.98591 -11.5276
upperneck 7.3444 -13.2457 11.6345
head 5.06952 -6.26595 4.41466
rclavicle 3.60546e-014 -2.06736e-014
rhumerus 21.4542 30.4353 -24.6274
rradius 85.1751
rwrist 21.1649
rhand -42.4598 16.0554
rfingers 7.12502
rthumb -15.3381 -13.3558
lclavicle 3.60546e-014 -2.06736e-014
lhumerus -12.8005 -7.16149 11.4552
lradius 85.7992
lwrist -0.499538
lhand -27.9968 13.4576
lfingers 7.12502
lthumb -1.38279 43.4329
rfemur 14.0194 5.13353 20.8128
rtibia 16.8278
rfoot -36.9614 -36.6973
rtoes 3.35949
lfemur -26.0007 -27.5606 -2.12526
ltibia 30.3431
lfoot -7.37267 -13.366
ltoes -9.04848
580
root -0.568088 17.9817 3.79921 -2.3375 48.5681 -1.6312
lowerback 4.046 11.7274 4.07826
upperback -1.79 15.8077 -4.65004
thorax -1.67891 7.8676 -7.56326
lowerneck -7.98415 -10.0795 -11.461
upperneck 7.57117 -13.4057 11.6436
head 5.14732 -6.33974 4.38817
rclavicle 1.15631e-013 -3.02153e-014
rhumerus 22.3804 30.6673 -24.6647
rradius 85.2343
rwrist 21.119
rhand -42.4268 16.0076
rfingers 7.12502
rthumb -15.3063 -13.406
lclavicle 1.15631e-013 -3.02153e-014
lhumerus -13.4121 -6.75676 11.0015
lradius 85.6394
lwrist -0.598888
lhand -28.0277 13.3583
lfingers 7.12502
lthumb -1.4127 43.3333
rfemur 14.1167 4.83294 20.8692
rtibia 16.8799
rfoot -37.306 -36.8552
rtoes 3.57054
lfemur -26.3685 -27.8045 -2.18289
ltibia 30.5387
lfoot -7.43865 -13.7438
ltoes -9.49499
581
root -0.560151 17.9743 3.79945 -2.15388 49.1852 -1.34779
lowerback 4.20122 11.9197 4.12239
upperback -1.84537 16.0733 -4.84034
thorax -1.71402 8.00176 -7.81191
lowerneck -7.87858 -10.22 -11.4005
upperneck 7.7296 -13.616 11.5331
head 5.19038 -6.44787 4.32373
rclavicle -4.80438e-014 -2.22639e-014
rhumerus 23.2686 30.9052 -24.47
rradius 85.3116
rwrist 21.1258
rhand -42.3683 15.9049
rfingers 7.12502
rthumb -15.25 -13.513
lclavicle -4.80438e-014 -2.22639e-014
lhumerus -13.858 -6.49981 10.755
lradius 85.8844
lwrist 0.0562098
lhand -27.497 15.4824
lfingers 7.12502
lthumb -0.900093 45.4602
rfemur 14.2296 4.60272 20.7667
rtibia 16.9142
rfoot -37.6895 -37.0291
rtoes 3.92929
lfemur -26.6957 -27.9827 -2.43635
ltibia 30.7625
lfoot -7.38178 -14.1241
ltoes -9.59718
